<?xml version="1.0" encoding="iso-8859-1"?>
<!-- Generator: Adobe Illustrator 19.0.0, SVG Export Plug-In . SVG Version: 6.00 Build 0)  -->
<svg version="1.1" id="Capa_1" xmlns="http://www.w3.org/2000/svg" xmlns:xlink="http://www.w3.org/1999/xlink" x="0px" y="0px"
	 viewBox="0 0 512 512" style="enable-background:new 0 0 512 512;" xml:space="preserve">
<g>
	<g>
		<path d="M470.992,181.175v-61.552C482.636,115.495,491,104.379,491,91.342c0-16.543-13.463-30.002-30.013-30.002
			s-30.013,13.459-30.013,30.002c0,13.037,8.364,24.153,20.008,28.282v61.552c-11.644,4.128-20.008,15.245-20.008,28.282
			c0,16.543,13.463,30.002,30.013,30.002S491,226,491,209.457C491,196.42,482.636,185.304,470.992,181.175z M460.987,219.459
			c-5.516,0-10.004-4.487-10.004-10.002c0-5.515,4.487-10.002,10.004-10.002c5.517,0,10.004,4.487,10.004,10.002
			C470.991,214.972,466.503,219.459,460.987,219.459z M460.987,101.344c-5.517,0-10.004-4.487-10.004-10.002
			s4.488-10.002,10.004-10.002s10.004,4.487,10.004,10.002S466.504,101.344,460.987,101.344z"/>
	</g>
</g>
<g>
	<g>
		<path d="M398.058,183.834l-49.487-33.435l49.486-33.434c4.578-3.093,5.781-9.31,2.687-13.885
			c-3.095-4.576-9.316-5.778-13.891-2.686l-61.749,41.719c-2.753,1.86-4.402,4.964-4.402,8.285s1.649,6.425,4.401,8.285
			l61.749,41.72c1.718,1.16,3.666,1.716,5.594,1.716c3.21,0,6.364-1.542,8.298-4.4C403.838,193.144,402.635,186.927,398.058,183.834
			z"/>
	</g>
</g>
<g>
	<g>
		<path d="M262.194,180.188c14.895-1.749,26.491-14.437,26.491-29.789c0-14.505-10.352-26.638-24.059-29.407
			c-6.65-21.558-21.492-38.902-44.388-51.749c-7.806-4.38-16.229-8.094-24.99-11.314c16.806-3.646,32.37-7.418,44.595-12.664
			c7.132-3.061,28.834-12.373,28.834-35.265c0-5.522-4.48-10-10.005-10H51.013c-5.525,0-10.005,4.478-10.005,10
			c0,22.892,21.702,32.204,28.834,35.265c12.225,5.246,27.789,9.019,44.595,12.664c-8.761,3.221-17.184,6.935-24.99,11.314
			C66.552,82.09,51.71,99.434,45.061,120.992C31.353,123.76,21,135.893,21,150.399c0,15.349,11.592,28.035,26.484,29.788
			c5.941,13.44,15.998,25.882,30.329,37.568c15.567,12.694,34.844,23.482,54.661,33.608c-47.324,23.942-91.465,50.705-91.465,98.861
			c0,56.155,37.222,84.343,79.951,101.574c-0.118,0.03-0.235,0.062-0.354,0.092c-19.866,5.187-38.631,10.086-52.557,16.593
			c-6.688,3.125-27.04,12.634-27.04,33.517c0,5.522,4.48,10,10.005,10h207.658c5.525,0,10.005-4.478,10.005-10
			c0-20.883-20.352-30.392-27.04-33.517c-13.926-6.507-32.691-11.406-52.557-16.593c-0.118-0.03-0.235-0.062-0.354-0.092
			c42.729-17.231,79.951-45.419,79.951-101.574c0-48.156-44.141-74.919-91.465-98.861c19.817-10.126,39.094-20.914,54.661-33.608
			C246.203,206.07,256.253,193.627,262.194,180.188z M258.672,140.397c5.516,0,10.004,4.487,10.004,10.002
			s-4.488,10.002-10.004,10.002s-10.004-4.487-10.004-10.002S253.155,140.397,258.672,140.397z M77.736,26.887
			c-5.544-2.379-9.25-4.718-11.726-6.887h177.666c-2.477,2.169-6.183,4.508-11.726,6.887c-13.07,5.608-68.579,17.371-77.107,19.367
			C146.315,44.258,90.805,32.495,77.736,26.887z M154.842,66.804c20.995,5.083,41.388,11.414,57.77,21.196H97.077
			C113.457,78.218,133.849,71.886,154.842,66.804z M51.013,160.401c-5.516,0-10.004-4.487-10.004-10.002s4.487-10.002,10.004-10.002
			c5.517,0,10.004,4.487,10.004,10.002S56.529,160.401,51.013,160.401z M242.391,492H67.294
			c11.042-8.402,77.547-25.766,87.548-28.686C164.843,466.234,231.348,483.598,242.391,492z M154.842,442.463
			c-18.509-5.617-36.781-12.441-52.159-21.781h104.318C191.623,430.021,173.352,436.846,154.842,442.463z M231.23,400.682H78.455
			c-7.833-9.184-12.948-19.542-15.501-31.349h183.777C244.177,381.14,239.062,391.497,231.23,400.682z M248.651,349.333H61.034
			c0.195-11.744,4.215-22.022,11.029-31.286h165.561C244.437,327.311,248.457,337.589,248.651,349.333z M217.145,298.047H92.54
			c17.051-12.908,39.293-24.094,62.303-35.5C177.853,273.953,200.095,285.139,217.145,298.047z M154.842,240.222
			c-18.474-9.179-36.323-18.293-51.41-28.369h102.813C191.161,221.929,173.315,231.043,154.842,240.222z M79.168,191.853
			c-4.76-5.115-8.738-10.536-11.739-16.355c8.18-5.365,13.597-14.608,13.597-25.098c0-11.399-6.393-21.333-15.783-26.409
			c2.171-5.911,5.143-11.207,8.761-15.991h161.68c3.618,4.783,6.59,10.078,8.76,15.989c-9.392,5.076-15.786,15.01-15.786,26.41
			c0,10.487,5.414,19.728,13.591,25.094c-3.001,5.821-6.981,11.243-11.742,16.36H79.168z"/>
	</g>
</g>
<g>
</g>
<g>
</g>
<g>
</g>
<g>
</g>
<g>
</g>
<g>
</g>
<g>
</g>
<g>
</g>
<g>
</g>
<g>
</g>
<g>
</g>
<g>
</g>
<g>
</g>
<g>
</g>
<g>
</g>
</svg>
