<?xml version="1.0" encoding="iso-8859-1"?>
<!-- Generator: Adobe Illustrator 19.0.0, SVG Export Plug-In . SVG Version: 6.00 Build 0)  -->
<svg version="1.1" id="Capa_1" xmlns="http://www.w3.org/2000/svg" xmlns:xlink="http://www.w3.org/1999/xlink" x="0px" y="0px"
	 viewBox="0 0 512.001 512.001" style="enable-background:new 0 0 512.001 512.001;" xml:space="preserve">
<g>
	<g>
		<path d="M509.072,473.715l-21.213-21.214c-3.905-3.903-10.235-3.904-14.143,0c-3.905,3.905-3.905,10.237,0,14.143l4.143,4.143
			h-27.071V348.074c11.639-4.128,20-15.243,20-28.28s-8.361-24.152-20-28.28V99.492c11.639-4.128,20-15.243,20-28.28
			c0-16.542-13.458-30-30-30s-30,13.458-30,30c0,9.6,4.538,18.155,11.576,23.65L358.327,286.97c-4.424,0.08-8.619,1.114-12.38,2.918
			l-41.921-41.92c1.878-3.917,2.932-8.3,2.932-12.926c0-16.542-13.458-30-30-30c-13.036,0-24.152,8.361-28.28,20h-107.27
			c-4.128-11.639-15.243-20-28.28-20c-16.542,0-30,13.458-30,30c0,13.036,8.361,24.152,20,28.28v107.269
			c-11.639,4.128-20,15.243-20,28.28s8.361,24.152,20,28.28v43.635H41.213v-61.915h10c5.522,0,10-4.478,10-10
			c0-5.522-4.478-10-10-10h-10v-61.915h10c5.522,0,10-4.478,10-10c0-5.522-4.478-10-10-10h-10v-61.914h10c5.522,0,10-4.478,10-10
			c0-5.522-4.478-10-10-10h-10v-61.915h10c5.522,0,10-4.478,10-10c0-5.522-4.478-10-10-10h-10V81.212h10c5.522,0,10-4.478,10-10
			c0-5.522-4.478-10-10-10h-10V34.141l4.143,4.143c3.906,3.904,10.236,3.904,14.143,0c3.905-3.905,3.905-10.237,0-14.143
			L38.284,2.928c-3.906-3.904-10.236-3.904-14.143,0L2.929,24.141c-3.905,3.905-3.905,10.237,0,14.143
			c1.953,1.952,4.512,2.929,7.071,2.929s5.118-0.977,7.071-2.929l4.142-4.142v446.645c0,5.522,4.478,10,10,10h446.645l-4.142,4.142
			c-3.905,3.905-3.905,10.237,0,14.143c1.953,1.952,4.512,2.929,7.071,2.929s5.118-0.977,7.071-2.929l21.213-21.213
			C512.977,483.952,512.977,477.62,509.072,473.715z M358.872,306.956c5.514,0,10,4.486,10,10c0,5.514-4.486,10-10,10
			c-5.514,0-10-4.486-10-10C348.872,311.442,353.359,306.956,358.872,306.956z M276.957,225.042c5.514,0,10,4.486,10,10
			c0,5.514-4.486,10-10,10c-5.514,0-10-4.486-10-10C266.957,229.528,271.444,225.042,276.957,225.042z M141.408,245.042h107.269
			c4.128,11.639,15.243,20,28.28,20c4.626,0,9.009-1.054,12.926-2.932l41.921,41.92c-1.878,3.916-2.932,8.3-2.932,12.926
			c0,16.542,13.458,30,30,30s30-13.458,30-30c0-9.6-4.538-18.155-11.576-23.65l53.491-160.473v158.681
			c-11.639,4.128-20,15.243-20,28.28c0,4.438,0.976,8.649,2.713,12.443l-41.232,39.803c-4.035-2.023-8.583-3.169-13.396-3.169
			c-8.074,0-15.407,3.212-20.805,8.417l-113.261-56.631c0.15-1.214,0.237-2.448,0.237-3.702c0-16.542-13.458-30-30-30
			s-30,13.458-30,30c0,4.626,1.054,9.009,2.932,12.926l-41.921,41.921c-0.949-0.455-1.926-0.859-2.926-1.214V263.322
			C131.637,260.304,138.39,253.551,141.408,245.042z M368.872,398.871c0,5.514-4.486,10-10,10c-5.514,0-10-4.486-10-10
			c0-5.514,4.486-10,10-10C364.386,388.871,368.872,393.357,368.872,398.871z M205.043,316.956c0,5.514-4.486,10-10,10
			c-5.514,0-10-4.486-10-10c0-5.514,4.486-10,10-10C200.557,306.956,205.043,311.442,205.043,316.956z M113.128,225.042
			c5.514,0,10,4.486,10,10c0,5.514-4.486,10-10,10c-5.514,0-10-4.486-10-10C103.128,229.528,107.615,225.042,113.128,225.042z
			 M113.128,408.871c-5.514,0-10-4.486-10-10c0-5.514,4.486-10,10-10c5.514,0,10,4.486,10,10
			C123.128,404.385,118.642,408.871,113.128,408.871z M368.872,470.786v-10c0-5.522-4.478-10-10-10c-5.522,0-10,4.478-10,10v10
			h-61.915v-10c0-5.522-4.478-10-10-10c-5.522,0-10,4.478-10,10v10h-61.914v-10c0-5.522-4.478-10-10-10c-5.522,0-10,4.478-10,10v10
			h-61.915v-43.635c11.639-4.128,20-15.243,20-28.28c0-4.626-1.054-9.009-2.932-12.926l41.921-41.921
			c3.917,1.878,8.3,2.932,12.926,2.932c8.074,0,15.407-3.212,20.805-8.417l113.26,56.631c-0.15,1.214-0.237,2.447-0.237,3.701
			c0,16.542,13.458,30,30,30s30-13.458,30-30c0-4.438-0.976-8.649-2.713-12.443l41.232-39.803c1.096,0.549,2.229,1.035,3.396,1.449
			v122.712H368.872z M440.787,329.794c-5.514,0-10-4.486-10-10c0-5.514,4.486-10,10-10c5.514,0,10,4.486,10,10
			C450.787,325.308,446.301,329.794,440.787,329.794z M440.787,81.212c-5.514,0-10-4.486-10-10c0-5.514,4.487-10,10-10
			c5.514,0,10,4.486,10,10C450.787,76.726,446.301,81.212,440.787,81.212z"/>
	</g>
</g>
<g>
</g>
<g>
</g>
<g>
</g>
<g>
</g>
<g>
</g>
<g>
</g>
<g>
</g>
<g>
</g>
<g>
</g>
<g>
</g>
<g>
</g>
<g>
</g>
<g>
</g>
<g>
</g>
<g>
</g>
</svg>
