<?xml version="1.0" encoding="iso-8859-1"?>
<!-- Generator: Adobe Illustrator 19.0.0, SVG Export Plug-In . SVG Version: 6.00 Build 0)  -->
<svg version="1.1" id="Capa_1" xmlns="http://www.w3.org/2000/svg" xmlns:xlink="http://www.w3.org/1999/xlink" x="0px" y="0px"
	 viewBox="0 0 512 512" style="enable-background:new 0 0 512 512;" xml:space="preserve">
<g>
	<g>
		<path d="M481.1,443.084c2.844-4.39,4.503-9.615,4.503-15.223v-15.103c0-18.069-14.7-32.769-32.769-32.769
			s-32.769,14.7-32.769,32.769v15.103c0,5.608,1.659,10.834,4.503,15.224c-8.407,4.566-15.584,11.118-20.9,19.022
			c-5.316-7.904-12.494-14.457-20.901-19.022c2.844-4.39,4.503-9.615,4.503-15.223v-15.103c0-18.069-14.7-32.769-32.769-32.769
			s-32.769,14.7-32.769,32.769v15.103c0,5.608,1.659,10.834,4.503,15.223c-8.407,4.566-15.584,11.118-20.901,19.022
			c-5.316-7.904-12.493-14.456-20.901-19.022c2.844-4.39,4.503-9.615,4.503-15.223v-15.103c0-18.069-14.7-32.769-32.769-32.769
			s-32.769,14.7-32.769,32.769v15.103c0,5.608,1.659,10.834,4.503,15.223c-8.496,4.614-15.73,11.259-21.063,19.274
			c-5.332-8.015-12.567-14.661-21.063-19.275c2.844-4.39,4.503-9.615,4.503-15.223v-15.103c0-18.069-14.7-32.769-32.769-32.769
			c-18.069,0-32.769,14.7-32.769,32.769v15.103c0,5.608,1.659,10.834,4.503,15.224c-8.407,4.566-15.584,11.118-20.901,19.022
			c-5.316-7.904-12.493-14.456-20.901-19.022c2.844-4.39,4.503-9.615,4.503-15.223v-15.103c0-18.069-14.7-32.769-32.769-32.769
			s-32.772,14.697-32.772,32.767v15.103c0,5.608,1.659,10.834,4.503,15.223C12.512,453.068,0,472.553,0,494.906v7.066
			c0,5.522,4.477,9.999,9.999,9.999h492.002c5.522,0,9.999-4.477,9.999-9.999v-7.066C512,472.553,499.487,453.068,481.1,443.084z
			 M59.167,399.985c7.042,0,12.772,5.729,12.772,12.772v15.103c0,4.461-3.629,8.089-8.089,8.089h-9.364
			c-4.461,0-8.089-3.629-8.089-8.089v-15.103h-0.001C46.395,405.714,52.124,399.985,59.167,399.985z M20.107,491.975
			c1.504-20.101,18.34-35.996,38.819-35.996h0.481c20.479,0,37.315,15.895,38.819,35.996H20.107z M144.73,412.756
			c0-7.042,5.729-12.772,12.772-12.772s12.772,5.729,12.772,12.772v15.103c0,4.461-3.629,8.089-8.09,8.089h-9.364
			c-4.461,0-8.089-3.629-8.089-8.089V412.756z M118.443,491.975c1.504-20.101,18.341-35.996,38.82-35.996h0.481
			c20.479,0,37.315,15.895,38.819,35.996H118.443z M243.39,412.756c0-7.042,5.729-12.772,12.772-12.772s12.772,5.729,12.772,12.772
			v15.103c0,4.461-3.629,8.089-8.089,8.089h-9.365c-4.461,0-8.089-3.629-8.089-8.089V412.756z M217.102,491.975
			c1.504-20.101,18.34-35.996,38.819-35.996h0.481c20.479,0,37.315,15.895,38.819,35.996H217.102z M354.497,399.985
			c7.042,0,12.772,5.729,12.772,12.772v15.103c0,4.461-3.629,8.089-8.089,8.089h-9.364c-4.461,0-8.089-3.629-8.089-8.089v-15.103
			h-0.001C341.726,405.714,347.455,399.985,354.497,399.985z M315.437,491.975c1.504-20.101,18.34-35.996,38.819-35.996h0.481
			c20.479,0,37.315,15.895,38.819,35.996H315.437z M440.061,412.756c0-7.042,5.729-12.772,12.772-12.772s12.772,5.729,12.772,12.772
			v15.103c0,4.461-3.629,8.089-8.089,8.089h-9.364c-4.461,0-8.09-3.629-8.09-8.089V412.756z M413.774,491.975
			c1.504-20.101,18.34-35.996,38.819-35.996h0.481c20.479,0,37.315,15.895,38.819,35.996H413.774z"/>
	</g>
</g>
<g>
	<g>
		<path d="M481.1,309.099c2.844-4.39,4.503-9.615,4.503-15.223v-15.103c0-18.069-14.7-32.769-32.769-32.769
			s-32.769,14.7-32.769,32.769v15.103c0,5.608,1.659,10.834,4.503,15.224c-8.407,4.565-15.584,11.118-20.9,19.022
			c-5.316-7.904-12.494-14.457-20.901-19.022c2.844-4.39,4.503-9.615,4.503-15.223v-15.103c0-18.069-14.7-32.769-32.769-32.769
			s-32.769,14.7-32.769,32.769v15.103c0,5.608,1.659,10.834,4.503,15.223c-8.407,4.565-15.584,11.118-20.901,19.022
			c-5.316-7.904-12.493-14.456-20.901-19.022c2.844-4.39,4.503-9.615,4.503-15.223v-15.103c0-18.069-14.7-32.769-32.769-32.769
			s-32.769,14.7-32.769,32.769v15.103c0,5.608,1.659,10.834,4.503,15.223c-8.496,4.613-15.73,11.259-21.063,19.274
			c-5.332-8.015-12.567-14.661-21.063-19.275c2.844-4.39,4.503-9.615,4.503-15.223v-15.103c0-18.069-14.7-32.769-32.769-32.769
			c-18.069,0-32.769,14.7-32.769,32.769v15.103c0,5.608,1.659,10.834,4.503,15.224c-8.407,4.565-15.584,11.118-20.901,19.022
			c-5.316-7.904-12.493-14.456-20.901-19.022c2.844-4.39,4.503-9.615,4.503-15.223v-15.103c0-18.069-14.7-32.769-32.769-32.769
			s-32.772,14.697-32.772,32.767v15.103c0,5.608,1.659,10.834,4.503,15.223C12.512,319.083,0,338.568,0,360.921v7.066
			c0,5.522,4.477,9.999,9.999,9.999h492.002c5.522,0,9.999-4.477,9.999-9.999v-7.066C512,338.568,499.487,319.083,481.1,309.099z
			 M59.167,265.999c7.042,0,12.772,5.729,12.772,12.772v15.103c0,4.461-3.629,8.089-8.089,8.089h-9.364
			c-4.461,0-8.089-3.629-8.089-8.089v-15.103h-0.001C46.395,271.729,52.124,265.999,59.167,265.999z M20.107,357.989
			c1.504-20.101,18.34-35.996,38.819-35.996h0.481c20.479,0,37.315,15.895,38.819,35.996H20.107z M144.73,278.771
			c0-7.042,5.729-12.772,12.772-12.772s12.772,5.729,12.772,12.772v15.103c0,4.461-3.629,8.089-8.09,8.089h-9.364
			c-4.461,0-8.089-3.629-8.089-8.089V278.771z M118.443,357.989c1.504-20.101,18.341-35.996,38.82-35.996h0.481
			c20.479,0,37.315,15.895,38.819,35.996H118.443z M243.39,278.771c0-7.042,5.729-12.772,12.772-12.772s12.772,5.729,12.772,12.772
			v15.103c0,4.461-3.629,8.089-8.089,8.089h-9.365c-4.461,0-8.089-3.629-8.089-8.089V278.771z M217.102,357.989
			c1.504-20.101,18.34-35.996,38.819-35.996h0.481c20.479,0,37.315,15.895,38.819,35.996H217.102z M354.497,265.999
			c7.042,0,12.772,5.729,12.772,12.772v15.103c0,4.461-3.629,8.089-8.089,8.089h-9.364c-4.461,0-8.089-3.629-8.089-8.089v-15.103
			h-0.001C341.726,271.729,347.455,265.999,354.497,265.999z M315.437,357.989c1.504-20.101,18.34-35.996,38.819-35.996h0.481
			c20.479,0,37.315,15.895,38.819,35.996H315.437z M440.061,278.771c0-7.042,5.729-12.772,12.772-12.772s12.772,5.729,12.772,12.772
			v15.103c0,4.461-3.629,8.089-8.089,8.089h-9.364c-4.461,0-8.09-3.629-8.09-8.089V278.771z M413.774,357.989
			c1.504-20.101,18.34-35.996,38.819-35.996h0.481c20.479,0,37.315,15.895,38.819,35.996H413.774z"/>
	</g>
</g>
<g>
	<g>
		<path d="M447.951,96.338c-5.522,0-9.999,4.477-9.999,9.999v0.292c0,5.522,4.477,9.999,9.999,9.999s9.999-4.477,9.999-9.999v-0.292
			C457.95,100.814,453.473,96.338,447.951,96.338z"/>
	</g>
</g>
<g>
	<g>
		<path d="M447.951,133.68c-5.522,0-9.999,4.477-9.999,9.999v48.328h-181.98c-5.522,0-9.999,4.477-9.999,9.999
			s4.477,9.999,9.999,9.999h191.979c5.522,0,9.999-4.477,9.999-9.999v-58.327C457.95,138.156,453.473,133.68,447.951,133.68z"/>
	</g>
</g>
<g>
	<g>
		<path d="M447.951,0.029H153.983c-5.522,0-9.999,4.477-9.999,9.999v1.99h-39.686c-11.863,0-21.514,9.651-21.514,21.514V48.89
			c0,6.968,3.098,13.224,7.983,17.473v15.867c0,7.874,2.713,15.121,7.242,20.876l-15.856,5.229
			c-16.826,5.549-28.131,21.182-28.131,38.899v77.769c0.001,5.522,4.478,9.999,10,9.999h132.134c4.045,0,7.519-2.406,9.094-5.86
			l35.428-55.772c2.672-4.206,1.839-9.736-1.952-12.97l-1.785-1.523l19.295-24.316c3.433-4.327,2.708-10.616-1.618-14.047
			c-4.327-3.433-10.616-2.709-14.047,1.618l-18.878,23.791c-3.943-2.867-9.437-2.485-12.94,1.017l-2.599,2.599v-2.628
			c0-17.439-11.071-32.992-27.548-38.703l-15.034-5.209c4.479-5.736,7.159-12.944,7.159-20.77V66.656
			c8.743-5.807,14.52-15.74,14.52-27v-19.63h252.699v51.327c0,5.522,4.477,9.999,9.999,9.999s9.999-4.477,9.999-9.999V10.027
			C457.95,4.505,453.473,0.029,447.951,0.029z M172.06,127.106c8.433,2.922,14.098,10.882,14.098,19.807v22.625l-3.082,3.082
			c-3.905,3.905-3.905,10.236,0,14.141c3.905,3.906,10.236,3.905,14.141,0l4.349-4.349c1.198-0.773,2.219-1.794,2.992-2.992
			l11.806-11.807l2.777,2.369l-28.601,45.024h-18.816v-16.665c0-5.522-4.477-9.999-9.999-9.999c-5.522,0-9.999,4.477-9.999,9.999
			v16.665h-40.099v-16.665c0-5.522-4.477-9.999-9.999-9.999c-5.522,0-9.999,4.477-9.999,9.999v16.665H74.022v-67.773
			c0-9.067,5.785-17.067,14.396-19.908l18.302-6.035l15.459,44.345c1.4,4.017,5.188,6.707,9.442,6.707s8.041-2.691,9.442-6.707
			l15.325-43.961L172.06,127.106z M136.915,96.049h-12.331c-7.62,0-13.818-6.199-13.818-13.818V72.052h39.968v10.179
			C150.734,89.851,144.534,96.049,136.915,96.049z M137.174,116.04l-5.553,15.929l-5.55-15.922h10.845
			C137.002,116.047,137.087,116.041,137.174,116.04z M165.255,39.655c0,6.836-5.562,12.399-12.399,12.399h-46.91
			c-1.745,0-3.164-1.419-3.164-3.164V33.531c0-0.836,0.68-1.516,1.516-1.516h45.521c5.329,0,10.57-1.044,15.435-3.028V39.655z"/>
	</g>
</g>
<g>
	<g>
		<path d="M410.288,41.05H215.83c-5.522,0-9.999,4.477-9.999,9.999s4.477,9.999,9.999,9.999h194.458
			c5.522,0,9.999-4.477,9.999-9.999S415.81,41.05,410.288,41.05z"/>
	</g>
</g>
<g>
	<g>
		<path d="M410.288,90.051H215.83c-5.522,0-9.999,4.477-9.999,9.999s4.477,9.999,9.999,9.999h194.458
			c5.522,0,9.999-4.477,9.999-9.999S415.81,90.051,410.288,90.051z"/>
	</g>
</g>
<g>
	<g>
		<path d="M410.288,139.051H334.15c-5.522,0-9.999,4.477-9.999,9.999s4.477,9.999,9.999,9.999h76.138
			c5.522,0,9.999-4.477,9.999-9.999S415.81,139.051,410.288,139.051z"/>
	</g>
</g>
<g>
	<g>
		<path d="M301.572,139.051h-0.605c-5.522,0-9.999,4.477-9.999,9.999s4.477,9.999,9.999,9.999h0.605
			c5.522,0,9.999-4.477,9.999-9.999S307.094,139.051,301.572,139.051z"/>
	</g>
</g>
<g>
</g>
<g>
</g>
<g>
</g>
<g>
</g>
<g>
</g>
<g>
</g>
<g>
</g>
<g>
</g>
<g>
</g>
<g>
</g>
<g>
</g>
<g>
</g>
<g>
</g>
<g>
</g>
<g>
</g>
</svg>
